<svg width="164" height="22" viewBox="0 0 164 22" fill="none" xmlns="http://www.w3.org/2000/svg">
<path d="M40.9397 1.65674C43.355 1.65674 45.1715 2.29549 46.3292 3.57301C47.5069 4.83056 48.1058 6.40748 48.1058 8.28383C48.1058 10.1602 47.487 11.7171 46.2693 12.9348C45.0517 14.1524 43.1554 14.7313 40.6004 14.7313H38.1851V20.7196H33.3545V1.65674H40.9397ZM40.8399 10.3997C42.357 10.3997 43.1554 9.44157 43.1554 8.22395C43.1554 6.98636 42.2771 6.04818 40.9397 6.04818H38.1851V10.3797L40.8399 10.3997Z" fill="white"/>
<path d="M60.3423 6.4674H64.614V20.6997H60.3423V19.4621C59.1845 20.52 57.7873 21.059 56.1305 21.059C54.0945 21.059 52.4377 20.3404 51.1202 18.8832C49.8028 17.446 49.1641 15.6695 49.1641 13.5137C49.1641 11.3778 49.8028 9.60129 51.1202 8.20401C52.4377 6.78677 54.1144 6.08813 56.1305 6.08813C57.7873 6.08813 59.1646 6.62709 60.3423 7.74491V6.4674ZM59.3243 11.2381C58.6855 10.5993 57.907 10.26 56.9689 10.26C56.0107 10.26 55.2322 10.5993 54.6134 11.2381C53.9947 11.8769 53.6753 12.6553 53.6753 13.5536C53.6753 14.4918 53.9947 15.2902 54.6134 15.929C55.2522 16.5677 56.0307 16.9071 56.9689 16.9071C57.907 16.9071 58.6656 16.5677 59.3243 15.929C59.963 15.2902 60.2824 14.4918 60.2824 13.5536C60.2824 12.6553 59.963 11.8968 59.3243 11.2381Z" fill="white"/>
<path d="M67.5078 20.6997V6.4674H71.8593V8.22397C72.7576 6.80674 74.0351 6.08813 75.652 6.08813C76.2707 6.08813 76.8696 6.2079 77.4285 6.4674L77.0692 10.799C76.3905 10.5594 75.7717 10.4596 75.1928 10.4596C73.0969 10.4596 72.039 11.817 72.039 14.5516V20.6797H67.5078V20.6997Z" fill="white"/>
<path d="M89.1655 6.4674H93.4372V20.6997H89.1655V19.4621C88.0078 20.52 86.6105 21.059 84.9537 21.059C82.9177 21.059 81.2609 20.3404 79.9435 18.8832C78.6261 17.446 77.9873 15.6695 77.9873 13.5137C77.9873 11.3778 78.6261 9.60129 79.9435 8.20401C81.2609 6.78677 82.9377 6.08813 84.9537 6.08813C86.6105 6.08813 87.9878 6.62709 89.1655 7.74491V6.4674ZM88.1675 11.2381C87.5287 10.5993 86.7502 10.26 85.8121 10.26C84.8539 10.26 84.0754 10.5993 83.4566 11.2381C82.8379 11.8769 82.5185 12.6553 82.5185 13.5536C82.5185 14.4918 82.8179 15.2902 83.4566 15.929C84.0954 16.5677 84.8739 16.9071 85.8121 16.9071C86.7502 16.9071 87.5088 16.5677 88.1675 15.929C88.8062 15.2902 89.1256 14.4918 89.1256 13.5536C89.1057 12.6553 88.8062 11.8968 88.1675 11.2381Z" fill="white"/>
<path d="M95.3545 18.6436L97.3905 15.5696C98.7479 16.7473 100.185 17.3462 101.642 17.3462C102.64 17.3462 103.159 17.0268 103.159 16.4479C103.159 16.1086 102.9 15.8491 102.381 15.6495C102.301 15.6295 101.782 15.4698 100.804 15.1305C99.8457 14.7911 99.187 14.5716 98.8477 14.4119C97.0711 13.5935 96.1929 12.296 96.1929 10.5394C96.1929 9.20202 96.7318 8.12412 97.7898 7.28575C98.8477 6.42742 100.285 6.0282 102.061 6.0282C104.097 6.0282 105.854 6.64699 107.371 7.88458L105.415 10.8787C104.237 10.0803 103.099 9.66112 101.982 9.66112C101.243 9.66112 100.684 10.0204 100.684 10.4596C100.684 10.9187 101.123 11.258 101.982 11.4975C103.339 11.8768 104.477 12.296 105.335 12.7351C107.072 13.5935 107.75 14.6913 107.75 16.3481C107.75 17.7454 107.211 18.8832 106.094 19.7814C104.976 20.6597 103.519 21.0988 101.622 21.0988C99.1671 21.0988 97.0911 20.2605 95.3545 18.6436Z" fill="white"/>
<path d="M110.006 20.6997V1.03796H114.437V8.40362C115.136 7.14607 116.833 6.08813 118.909 6.08813C120.426 6.08813 121.743 6.60712 122.801 7.60517C123.859 8.60323 124.398 10.0804 124.398 11.9567V20.6997H119.827V13.1743C119.827 11.3179 118.869 10.24 117.332 10.24C115.675 10.24 114.537 11.4577 114.537 13.2741V20.6997H110.006Z" fill="white"/>
<path d="M126.852 2.57498C126.852 1.09786 128.009 0 129.486 0C130.964 0 132.081 1.11782 132.081 2.57498C132.081 4.09203 130.944 5.20985 129.486 5.20985C127.949 5.20985 126.852 4.09203 126.852 2.57498ZM131.762 20.6997H127.191V6.4674H131.762V20.6997Z" fill="white"/>
<path d="M140.386 6.26782V6.46743H144.738V10.2401H140.386V20.7197H135.855V10.2401H133.839V6.46743H135.855V6.16802C135.855 4.23179 136.414 2.73471 137.552 1.73665C138.689 0.738594 140.147 0.219604 141.963 0.219604C143.48 0.219604 145.057 0.638788 146.674 1.45719L145.157 4.87054C144.199 4.41144 143.38 4.17191 142.702 4.17191C141.264 4.15194 140.386 4.93043 140.386 6.26782Z" fill="white"/>
<path d="M157.512 19.9012C156.195 20.6797 154.678 21.059 152.981 21.059C149.448 21.059 147.691 19.1028 147.691 15.1704V10.2401H145.516V6.4674H147.731V1.41724H152.243V6.4674H156.694V10.2401H152.243V14.6515C152.243 16.1685 152.841 16.927 154.039 16.927C154.718 16.927 155.456 16.7274 156.275 16.2883L157.512 19.9012Z" fill="white"/>
<path d="M159.05 18.6437C159.05 17.2863 160.168 16.2284 161.585 16.2284C162.922 16.2284 164 17.3063 164 18.6437C164 20.0609 162.922 21.1189 161.585 21.1189C160.168 21.1189 159.05 20.0609 159.05 18.6437Z" fill="#C7333A"/>
<path d="M6.66699 21.1189H27.7859V0L6.66699 21.1189Z" fill="#C7333A"/>
<path d="M0 21.1189H13.334V7.78491L0 21.1189Z" fill="#FF933B"/>
</svg>
